<svg version="1" xmlns="http://www.w3.org/2000/svg" width="933.333" height="933.333" viewBox="0 0 700.000000 700.000000"><path d="M0 350v350h700V0H0v350zM367.7 77.5c41.4 9.6 67.3 52.2 56.8 93.6-.9 3.5-3.7 10.7-6.3 15.9-3.9 8-6.1 11-13.7 18.6-10.1 10.2-18.8 15.7-32 20.1-7.2 2.4-9.4 2.7-22.5 2.7s-15.3-.3-22.5-2.7c-13.2-4.4-21.9-9.9-32-20.1-7.6-7.6-9.8-10.6-13.7-18.6-2.6-5.2-5.4-12.4-6.3-15.9-9.4-37 10.4-76 45.6-90 6.5-2.6 9.8-3.4 21.9-5.5 4.1-.7 18 .4 24.7 1.9zm194 197c30.4 5.8 53.6 27.9 61 58.3 2.1 8.8 2.1 25.6 0 34.4-10.3 42.3-52.1 67.8-93.8 57.3-3.5-.9-10.7-3.7-15.9-6.3-8-3.9-11-6.1-18.6-13.7-10.2-10.1-15.7-18.8-20.1-32-2.4-7.2-2.7-9.4-2.7-22.5s.3-15.3 2.7-22.5c4.3-12.9 9.9-21.9 19.6-31.6 18.6-18.5 42.7-26.2 67.8-21.4zM173.5 474c25.9 8.2 44.4 26.8 52.7 53 3.3 10.8 3.3 31.1-.1 42-8 25.8-27.3 45.1-52.6 52.6-11.9 3.5-28.9 3.7-40.8.6-26.6-7.2-47.7-28.3-54.9-54.9-3.1-11.9-2.9-28.9.6-40.8 7.5-25.2 27.3-45 52.1-52.3 9.8-2.9 11.5-3.1 24.5-2.7 8.3.3 13.5 1 18.5 2.5zm199 .4c13 4.2 21.9 9.7 32 20 7.6 7.6 9.8 10.6 13.7 18.6 8.1 16.5 10.5 31.9 7.4 48.2-5.8 30.8-27.9 54.1-58.4 61.5-8.8 2.1-25.6 2.1-34.4 0-42.2-10.3-67.8-52.2-57.3-93.8.9-3.5 3.7-10.7 6.3-15.9 9.9-20.3 32.1-36.9 54.6-41 9.3-1.7 27.1-.5 36.1 2.4zM569 474c25.5 7.6 45.1 27.1 52.6 52.5 3.5 11.9 3.7 28.9.6 40.8-7.2 26.6-28.3 47.7-54.9 54.9-11.9 3.1-28.9 2.9-40.8-.6-25.3-7.5-44.6-26.8-52.6-52.6-3.4-10.9-3.4-31.2-.1-42 9.1-28.9 32.2-49.8 61-55 8.3-1.5 25.9-.5 34.2 2z"/></svg>