<?xml version="1.0" encoding="utf-8"?>
<!-- Generator: Adobe Illustrator 23.0.2, SVG Export Plug-In . SVG Version: 6.00 Build 0)  -->
<svg version="1.1" id="Layer_1" xmlns="http://www.w3.org/2000/svg" xmlns:xlink="http://www.w3.org/1999/xlink" x="0px" y="0px"
	 viewBox="0 0 400 400" enable-background="new 0 0 400 400" xml:space="preserve">
<rect width="400" height="400"/>
<g>
	<path fill="#FFFFFF" d="M200,43c24.28,0,43.95,19.68,43.95,43.96c0,24.27-19.68,43.96-43.95,43.96
		c-24.28,0-43.96-19.69-43.96-43.96C156.04,62.68,175.72,43,200,43z"/>
	<circle fill="#FFFFFF" cx="313.04" cy="200" r="43.96"/>
	<path fill="#FFFFFF" d="M313.04,269.08c24.27,0,43.96,19.68,43.96,43.96c0,24.26-19.69,43.96-43.96,43.96
		c-24.28,0-43.96-19.7-43.96-43.96C269.08,288.76,288.76,269.08,313.04,269.08z"/>
	<path fill="#FFFFFF" d="M200,269.08c24.28,0,43.95,19.68,43.95,43.96c0,24.26-19.68,43.96-43.95,43.96
		c-24.28,0-43.96-19.7-43.96-43.96C156.04,288.76,175.72,269.08,200,269.08z"/>
	<path fill="#FFFFFF" d="M86.96,269.08c24.28,0,43.96,19.68,43.96,43.96c0,24.26-19.68,43.96-43.96,43.96S43,337.3,43,313.04
		C43,288.76,62.68,269.08,86.96,269.08z"/>
</g>
<g>
</g>
<g>
</g>
<g>
</g>
<g>
</g>
<g>
</g>
<g>
</g>
<g>
</g>
<g>
</g>
<g>
</g>
<g>
</g>
<g>
</g>
<g>
</g>
<g>
</g>
<g>
</g>
<g>
</g>
</svg>
