<?xml version="1.0" encoding="utf-8"?>
<!-- Generator: Adobe Illustrator 23.0.2, SVG Export Plug-In . SVG Version: 6.00 Build 0)  -->
<svg version="1.1" id="Layer_1" xmlns="http://www.w3.org/2000/svg" xmlns:xlink="http://www.w3.org/1999/xlink" x="0px" y="0px"
	 viewBox="0 0 400 400" style="enable-background:new 0 0 400 400;" xml:space="preserve">
<g>
	<g>
		<path d="M0,278.96c2.68-0.08,4.6-0.69,5.75-1.84s1.8-2.51,1.96-4.08c0.15-1.57,0.23-4.31,0.23-8.22v-49.68
			c0-3.22,0.11-5.98,0.34-8.28L0,207.32v-5.06h25.87v3.79c-2.68,0.08-4.6,0.69-5.75,1.84c-1.15,1.15-1.8,2.51-1.95,4.08
			c-0.15,1.57-0.23,4.31-0.23,8.22v19.09h41.17v-24.15c0-3.22,0.11-5.98,0.34-8.28l-8.28,0.46v-5.06h25.87v3.79
			c-2.68,0.08-4.6,0.69-5.75,1.84c-1.15,1.15-1.8,2.51-1.95,4.08c-0.15,1.57-0.23,4.31-0.23,8.22v48.87c0,4.06-0.11,7.09-0.34,9.08
			l8.28-0.46v5.06H51.17v-3.79c2.68-0.08,4.6-0.69,5.75-1.84c1.15-1.15,1.8-2.51,1.95-4.08c0.15-1.57,0.23-4.31,0.23-8.22v-20.93
			l-41.17,0.46v24.72c0,4.06-0.11,7.09-0.34,9.08l8.28-0.46v5.06H0V278.96z"/>
		<path d="M100.56,281.03c-3.3-2.01-5.66-5.1-7.08-9.26c-1.42-4.16-2.13-9.65-2.13-16.46v-16.34c0-3.43,0.11-6.55,0.32-9.34
			l-5.79,0.24v-3.46h18.03v2.66c-2.36,0-3.86,0.62-4.51,1.85c-0.64,1.24-0.97,2.74-0.97,4.51v20.28c0,4.67,0.41,8.71,1.25,12.12
			c0.83,3.41,2.47,6.2,4.91,8.37c2.44,2.18,5.94,3.26,10.51,3.26c5.58,0,9.73-1.92,12.44-5.76c2.71-3.83,4.12-9.06,4.22-15.65
			l0.24-22.62c0-2.25,0.08-4.19,0.24-5.8l-5.72,0.33v-3.54h14.97v2.66c-1.93,0.06-3.3,0.48-4.1,1.29c-0.81,0.8-1.26,1.76-1.37,2.86
			c-0.11,1.1-0.16,3.02-0.16,5.75l-0.16,18.68c-0.05,7.78-1.78,14.13-5.19,19.04c-3.41,4.91-8.9,7.37-16.46,7.37
			C108.35,284.05,103.86,283.04,100.56,281.03z"/>
		<path d="M148.33,280.1c1.88-0.05,3.22-0.48,4.02-1.29s1.26-1.76,1.37-2.85c0.11-1.1,0.16-3.02,0.16-5.76v-34.77
			c0-2.25,0.08-4.19,0.24-5.8l-5.8,0.33v-3.54h18.11v2.66c-1.88,0.06-3.22,0.48-4.02,1.29s-1.26,1.76-1.37,2.86
			c-0.11,1.1-0.16,3.02-0.16,5.75v34.53c0,2.79-0.08,4.88-0.24,6.28l15.05-0.24c3.43-0.05,6.01-1.14,7.73-3.26
			c1.72-2.12,2.58-5.52,2.58-10.18h2.74l-0.48,16.66h-39.93V280.1z"/>
		<path d="M202.42,280.1c2.3-0.11,3.79-0.75,4.46-1.93c0.67-1.18,1.01-3.01,1.01-5.48v-2.49l0.08-40.81l-8.29,0.08
			c-3.33,0-5.7,1.11-7.12,3.34c-1.42,2.23-2.13,5.76-2.13,10.59h-2.98l0.48-16.99h46.93l0.48,16.99h-3.06
			c-0.06-3.38-0.39-6.08-1.01-8.09c-0.62-2.01-1.67-3.52-3.14-4.51c-1.47-1-3.58-1.49-6.32-1.49h-6.84l-0.08,43.87
			c0,2.85-0.08,4.96-0.24,6.36l6.68-0.32v3.54h-18.92V280.1z"/>
		<path d="M250.72,237.12h-0.08l0.24,34.45c0,3.6-0.05,6.25-0.16,7.97l5.79-0.32v3.54h-14.73v-2.66c2.15,0,3.57-0.61,4.27-1.85
			c0.7-1.23,1.05-2.74,1.05-4.51l0.08-44.11l-5.39,0.33v-3.54h9.58l34.29,45.88h0.08l0.08-36.87c0-2.25,0.08-4.19,0.24-5.8
			l-5.8,0.33v-3.54h14.81v2.66c-1.61,0.06-2.81,0.36-3.58,0.93c-0.78,0.56-1.27,1.33-1.49,2.29c-0.22,0.97-0.32,2.26-0.32,3.87v2.82
			l-0.16,45.08h-3.87L250.72,237.12z"/>
		<path d="M302.97,280.1c1.88-0.05,3.22-0.48,4.02-1.29s1.26-1.76,1.37-2.85c0.11-1.1,0.16-3.02,0.16-5.76v-34.77
			c0-2.25,0.08-4.19,0.24-5.8l-5.79,0.33v-3.54h38.72l0.4,14.09h-2.66c0-4.4-0.95-7.41-2.86-9.02c-1.9-1.61-4.58-2.36-8.01-2.25
			l-6.92,0.16c-1.93,0.06-3.33,0.42-4.19,1.09c-0.86,0.67-1.4,1.61-1.61,2.82c-0.21,1.21-0.32,3.1-0.32,5.67v12.88l15.13,0.08
			l-0.56-6.92h3.54v16.9h-2.66c0-1.99-0.24-3.5-0.72-4.55c-0.48-1.05-1.22-1.74-2.22-2.09c-0.99-0.35-2.37-0.52-4.14-0.52
			l-2.49,0.08l-5.88,0.24v18.43c0,2.79-0.08,4.88-0.24,6.28l15.37-0.24c3.75-0.05,6.63-1.01,8.62-2.86
			c1.98-1.85,2.98-5.06,2.98-9.62h2.74l-0.48,15.7h-41.53V280.1z M333.63,214.42c1.72-1.07,2.58-2.25,2.58-3.54
			c0-0.7-0.16-1.26-0.48-1.69c-0.16-0.21-0.44-0.44-0.84-0.68c-0.4-0.24-0.87-0.36-1.41-0.36c-0.97,0-2.01,0.48-3.14,1.45
			l-10.14,9.66l1.77,2.34L333.63,214.42z"/>
		<path d="M353.03,280.1c1.88-0.05,3.22-0.48,4.02-1.29s1.26-1.76,1.37-2.85c0.11-1.1,0.16-3.02,0.16-5.76v-34.77
			c0-2.25,0.08-4.19,0.24-5.8l-5.79,0.33v-3.54c5.58-0.11,9.79-0.16,12.64-0.16c2.58,0,4.51,0.03,5.8,0.08
			c7.57,0.11,13.1,1.38,16.62,3.82c3.51,2.44,5.27,5.97,5.27,10.59c0.05,3.7-1.05,7.03-3.3,9.98c-2.25,2.95-6.17,4.99-11.75,6.12
			c0.91,0.7,1.74,1.53,2.5,2.49c0.75,0.97,1.77,2.47,3.06,4.51l5.48,8.61c1.18,1.88,2.16,3.31,2.94,4.31
			c0.78,0.99,1.72,1.8,2.82,2.41c1.1,0.61,2.45,0.92,4.06,0.92v2.66h-10.14c-1.45-1.23-2.67-2.51-3.66-3.82
			c-1-1.32-2.16-3.02-3.51-5.11l-5.39-8.62l-1.05-1.69c-0.86-1.45-1.61-2.63-2.25-3.54s-1.34-1.72-2.09-2.41
			c-0.48,0.06-1.23,0.08-2.25,0.08c-1.45,0-2.53-0.02-3.22-0.08v15.61c0,2.85-0.08,4.96-0.24,6.36l5.79-0.32v3.54h-18.11V280.1z
			 M385.55,241.62c0-4.08-1.18-7.14-3.54-9.18c-2.36-2.04-5.98-3.06-10.87-3.06c-1.88,0-3.22,0.38-4.02,1.13
			c-0.8,0.75-1.26,1.66-1.37,2.74s-0.16,2.98-0.16,5.71v15.46c1.61,0.11,2.79,0.16,3.54,0.16
			C380.08,254.59,385.55,250.26,385.55,241.62z"/>
		<path d="M17.99,361.04c1.92-0.09,3.16-0.63,3.72-1.61c0.56-0.98,0.84-2.51,0.84-4.56v-2.08l0.07-34.01l-6.91,0.07
			c-2.77,0-4.75,0.93-5.94,2.78c-1.19,1.86-1.78,4.8-1.78,8.82H5.51l0.4-14.16h39.11l0.4,14.16h-2.55
			c-0.05-2.82-0.33-5.06-0.84-6.74c-0.52-1.68-1.39-2.93-2.62-3.75c-1.23-0.83-2.98-1.24-5.27-1.24h-5.7l-0.07,36.56
			c0,2.37-0.07,4.14-0.2,5.3l5.57-0.27v2.95H17.99V361.04z"/>
		<path d="M49.55,361.7c1.09-0.03,1.88-0.28,2.35-0.75c0.47-0.47,0.74-1.03,0.8-1.67c0.06-0.64,0.09-1.76,0.09-3.35v-20.29
			c0-1.32,0.05-2.44,0.14-3.38l-3.38,0.19v-2.07h22.58l0.24,8.22h-1.55c0-2.57-0.56-4.32-1.67-5.26c-1.11-0.94-2.67-1.38-4.67-1.31
			l-4.04,0.09c-1.13,0.03-1.94,0.25-2.44,0.63c-0.5,0.39-0.81,0.94-0.94,1.65c-0.12,0.7-0.19,1.81-0.19,3.31v7.51l8.83,0.05
			l-0.33-4.04h2.07v9.86h-1.55c0-1.16-0.14-2.04-0.42-2.65c-0.28-0.61-0.71-1.02-1.29-1.22c-0.58-0.2-1.39-0.31-2.42-0.31
			l-1.46,0.05l-3.43,0.14v10.75c0,1.63-0.05,2.85-0.14,3.66l8.97-0.14c2.19-0.03,3.87-0.59,5.03-1.67c1.16-1.08,1.74-2.95,1.74-5.61
			h1.6l-0.28,9.16H49.55V361.7z"/>
		<path d="M86.05,361.8c-2.43-1.47-4.32-3.47-5.68-6.01c-1.36-2.53-2.04-5.35-2.04-8.45c0-3.06,0.62-5.95,1.85-8.64
			c1.24-2.69,3.08-4.87,5.54-6.55c2.46-1.67,5.42-2.51,8.9-2.51c3.44,0,6.61,0.96,9.49,2.86l-0.24-2.53h2.54v10.89h-1.69
			c-0.31-2.91-1.34-5.19-3.07-6.83c-1.74-1.64-3.97-2.47-6.69-2.47c-2.22,0-4.25,0.62-6.08,1.86s-3.28,3-4.34,5.28
			c-1.06,2.29-1.6,4.93-1.6,7.94c0,2.88,0.56,5.46,1.69,7.72c1.13,2.27,2.64,4.04,4.56,5.31c1.91,1.27,4.02,1.9,6.34,1.9
			c2.1,0,4.12-0.47,6.06-1.41c1.94-0.94,3.54-2.27,4.79-3.99l1.22,0.98c-1.82,2.54-3.9,4.31-6.24,5.33
			c-2.35,1.02-4.69,1.52-7.04,1.52C91.23,364,88.48,363.27,86.05,361.8z"/>
		<path d="M111.57,361.7c1.09-0.03,1.88-0.28,2.35-0.75c0.47-0.47,0.74-1.03,0.8-1.67c0.06-0.64,0.09-1.76,0.09-3.35v-20.29
			c0-1.32,0.05-2.44,0.14-3.38l-3.38,0.19v-2.07h10.56v1.55c-1.1,0.03-1.88,0.28-2.35,0.75c-0.47,0.47-0.74,1.02-0.8,1.67
			c-0.06,0.64-0.09,1.76-0.09,3.36v7.8h16.81v-9.86c0-1.32,0.05-2.44,0.14-3.38l-3.38,0.19v-2.07h10.56v1.55
			c-1.1,0.03-1.88,0.28-2.35,0.75c-0.47,0.47-0.74,1.02-0.8,1.67c-0.06,0.64-0.1,1.76-0.1,3.36v19.96c0,1.66-0.05,2.89-0.14,3.71
			l3.38-0.19v2.07h-10.56v-1.55c1.09-0.03,1.88-0.28,2.35-0.75c0.47-0.47,0.74-1.03,0.8-1.67c0.06-0.64,0.1-1.76,0.1-3.35v-8.55
			l-16.81,0.19v10.09c0,1.66-0.05,2.89-0.14,3.71l3.38-0.19v2.07h-10.56V361.7z"/>
		<path d="M153.51,336.63h-0.05l0.14,20.1c0,2.1-0.03,3.65-0.09,4.65l3.38-0.19v2.07h-8.59v-1.55c1.25,0,2.08-0.36,2.49-1.08
			c0.41-0.72,0.61-1.6,0.61-2.63l0.05-25.73l-3.15,0.19v-2.07h5.59l20,26.76h0.05l0.05-21.5c0-1.32,0.05-2.44,0.14-3.38l-3.38,0.19
			v-2.07h8.64v1.55c-0.94,0.03-1.64,0.21-2.09,0.54c-0.46,0.33-0.75,0.78-0.87,1.34c-0.12,0.56-0.19,1.31-0.19,2.25v1.65l-0.1,26.29
			h-2.25L153.51,336.63z"/>
		<path d="M190.65,361.51c-2.5-1.66-4.35-3.79-5.54-6.41c-1.19-2.61-1.78-5.38-1.78-8.29c0-2.78,0.62-5.49,1.85-8.12
			c1.24-2.63,3.08-4.79,5.54-6.5c2.46-1.7,5.44-2.56,8.95-2.56c3.6,0,6.66,0.85,9.18,2.56c2.52,1.71,4.41,3.87,5.66,6.5
			c1.25,2.63,1.88,5.34,1.88,8.12c0,2.76-0.62,5.46-1.86,8.1c-1.24,2.64-3.08,4.82-5.54,6.53c-2.46,1.7-5.44,2.56-8.95,2.56
			C196.28,364,193.15,363.17,190.65,361.51z M206.4,359.99c1.74-1.39,3.05-3.18,3.95-5.38c0.89-2.19,1.34-4.49,1.34-6.9
			c0-2.66-0.49-5.23-1.46-7.72c-0.97-2.49-2.38-4.52-4.23-6.1c-1.85-1.58-4-2.38-6.48-2.38c-2.44,0-4.54,0.7-6.29,2.09
			c-1.75,1.4-3.07,3.2-3.97,5.42c-0.89,2.22-1.34,4.54-1.34,6.95c0,2.47,0.45,4.95,1.36,7.44c0.91,2.49,2.28,4.56,4.13,6.2
			c1.85,1.65,4.08,2.47,6.71,2.47C202.58,362.08,204.66,361.38,206.4,359.99z"/>
		<path d="M220.6,361.7c1.1-0.03,1.88-0.28,2.35-0.75c0.47-0.47,0.74-1.03,0.8-1.67c0.06-0.64,0.09-1.76,0.09-3.35v-20.29
			c0-1.32,0.05-2.44,0.14-3.38l-3.38,0.19v-2.07h10.57v1.55c-1.1,0.03-1.88,0.28-2.35,0.75c-0.47,0.47-0.74,1.02-0.8,1.67
			c-0.06,0.64-0.09,1.76-0.09,3.36v20.14c0,1.63-0.05,2.85-0.14,3.66l8.78-0.14c2-0.03,3.51-0.66,4.51-1.9c1-1.24,1.5-3.22,1.5-5.94
			h1.59l-0.28,9.72H220.6V361.7z"/>
		<path d="M253.71,361.51c-2.51-1.66-4.35-3.79-5.54-6.41c-1.19-2.61-1.78-5.38-1.78-8.29c0-2.78,0.62-5.49,1.86-8.12
			c1.23-2.63,3.08-4.79,5.54-6.5c2.46-1.7,5.44-2.56,8.95-2.56c3.6,0,6.66,0.85,9.18,2.56c2.52,1.71,4.41,3.87,5.66,6.5
			c1.25,2.63,1.88,5.34,1.88,8.12c0,2.76-0.62,5.46-1.86,8.1c-1.24,2.64-3.08,4.82-5.54,6.53c-2.46,1.7-5.44,2.56-8.95,2.56
			C259.34,364,256.21,363.17,253.71,361.51z M269.46,359.99c1.74-1.39,3.05-3.18,3.95-5.38c0.89-2.19,1.34-4.49,1.34-6.9
			c0-2.66-0.49-5.23-1.46-7.72c-0.97-2.49-2.38-4.52-4.23-6.1c-1.85-1.58-4.01-2.38-6.48-2.38c-2.44,0-4.54,0.7-6.29,2.09
			c-1.76,1.4-3.08,3.2-3.97,5.42c-0.89,2.22-1.34,4.54-1.34,6.95c0,2.47,0.46,4.95,1.36,7.44c0.91,2.49,2.28,4.56,4.13,6.2
			c1.85,1.65,4.08,2.47,6.71,2.47C265.63,362.08,267.72,361.38,269.46,359.99z"/>
		<path d="M291.37,362.01c-2.41-1.33-4.29-3.23-5.63-5.71c-1.35-2.47-2.02-5.4-2.02-8.78c0-3.07,0.61-5.96,1.85-8.69
			c1.24-2.72,3.09-4.94,5.57-6.65c2.47-1.7,5.44-2.56,8.92-2.56c1.69,0,3.4,0.23,5.14,0.68c1.74,0.46,3.26,1.09,4.58,1.9l-0.19-2.25
			h2.58v10.75h-1.69c-0.22-2.88-1.26-5.13-3.12-6.76c-1.86-1.63-4.19-2.44-6.97-2.44c-2.22,0-4.25,0.64-6.08,1.93
			c-1.83,1.28-3.29,3.06-4.37,5.33c-1.08,2.27-1.62,4.83-1.62,7.68c0,2.95,0.53,5.57,1.6,7.89c1.06,2.32,2.55,4.13,4.46,5.45
			c1.91,1.31,4.08,1.97,6.53,1.97c1.34,0,2.73-0.19,4.16-0.59c1.42-0.39,2.72-0.98,3.87-1.76v-10.29l-3.29,0.19v-2.07h10.61v1.55
			c-1.5,0-2.44,0.57-2.82,1.71s-0.56,2.43-0.56,3.87v7.18h-1.27c-1.32,0-3.01,0.4-5.07,1.22c-0.94,0.37-2.05,0.67-3.33,0.89
			c-1.28,0.22-2.46,0.33-3.52,0.33C296.55,364,293.78,363.34,291.37,362.01z"/>
		<path d="M319.82,361.7c1.1-0.03,1.88-0.28,2.35-0.75c0.47-0.47,0.74-1.03,0.8-1.67c0.06-0.64,0.09-1.76,0.09-3.35v-20.29
			c0-1.32,0.05-2.44,0.14-3.38l-3.38,0.19v-2.07h10.57v1.55c-1.1,0.03-1.88,0.28-2.35,0.75c-0.47,0.47-0.74,1.02-0.8,1.67
			c-0.06,0.64-0.09,1.76-0.09,3.36v19.96c0,1.66-0.05,2.89-0.14,3.71l3.38-0.19v2.07h-10.57V361.7z"/>
		<path d="M335.55,361.7c1.1-0.03,1.88-0.28,2.35-0.75c0.47-0.47,0.74-1.03,0.8-1.67c0.06-0.64,0.09-1.76,0.09-3.35v-20.29
			c0-1.32,0.05-2.44,0.14-3.38l-3.38,0.19v-2.07h22.59l0.23,8.22h-1.55c0-2.57-0.56-4.32-1.67-5.26c-1.11-0.94-2.67-1.38-4.67-1.31
			l-4.04,0.09c-1.13,0.03-1.94,0.25-2.44,0.63c-0.5,0.39-0.81,0.94-0.94,1.65c-0.13,0.7-0.19,1.81-0.19,3.31v7.51l8.83,0.05
			l-0.33-4.04h2.07v9.86h-1.55c0-1.16-0.14-2.04-0.42-2.65c-0.28-0.61-0.71-1.02-1.29-1.22c-0.58-0.2-1.38-0.31-2.42-0.31
			l-1.46,0.05l-3.43,0.14v10.75c0,1.63-0.05,2.85-0.14,3.66l8.97-0.14c2.19-0.03,3.87-0.59,5.02-1.67s1.74-2.95,1.74-5.61h1.6
			l-0.28,9.16h-24.23V361.7z"/>
		<path d="M371.31,363.39c-1.49-0.41-2.79-1-3.92-1.78l0.23,2.02h-2.44l-0.28-10h1.83c0.15,2.69,1.08,4.77,2.77,6.22
			c1.69,1.46,3.83,2.18,6.44,2.18c1.91,0,3.51-0.52,4.81-1.57c1.3-1.05,1.95-2.48,1.95-4.29c0-1.35-0.37-2.5-1.1-3.45
			c-0.74-0.95-1.65-1.75-2.72-2.39c-1.08-0.64-2.55-1.38-4.39-2.23c-2.1-1-3.77-1.88-5-2.63c-1.24-0.75-2.3-1.74-3.17-2.98
			c-0.88-1.24-1.31-2.76-1.31-4.58c0-1.25,0.29-2.5,0.87-3.75c0.58-1.25,1.58-2.32,3.01-3.2c1.42-0.88,3.31-1.31,5.66-1.31
			c1.41,0,2.82,0.18,4.25,0.54c1.42,0.36,2.73,0.98,3.92,1.86l-0.19-2.02h2.39v10.33h-1.69c-0.15-2.47-0.94-4.56-2.37-6.27
			c-1.42-1.7-3.42-2.56-5.99-2.56c-1.88,0-3.35,0.53-4.41,1.57c-1.06,1.05-1.59,2.36-1.59,3.92c0,1.25,0.36,2.33,1.08,3.24
			c0.72,0.91,1.6,1.66,2.63,2.26c1.03,0.59,2.49,1.33,4.37,2.2c2.13,0.97,3.84,1.85,5.14,2.63c1.3,0.79,2.4,1.81,3.31,3.08
			c0.91,1.27,1.36,2.83,1.36,4.67c0,1.76-0.43,3.3-1.29,4.65c-0.86,1.34-2.12,2.39-3.78,3.14c-1.66,0.75-3.63,1.13-5.92,1.13
			C374.27,364,372.79,363.8,371.31,363.39z"/>
	</g>
	<g>
		<path d="M196.41,31.17c10.8,0,19.55,8.75,19.55,19.55c0,10.79-8.75,19.55-19.55,19.55c-10.8,0-19.55-8.75-19.55-19.55
			C176.87,39.93,185.62,31.17,196.41,31.17z"/>
		<circle cx="246.68" cy="100.99" r="19.55"/>
		<path d="M246.68,131.71c10.79,0,19.55,8.75,19.55,19.55c0,10.79-8.75,19.55-19.55,19.55c-10.8,0-19.55-8.76-19.55-19.55
			C227.14,140.46,235.89,131.71,246.68,131.71z"/>
		<path d="M196.41,131.71c10.8,0,19.55,8.75,19.55,19.55c0,10.79-8.75,19.55-19.55,19.55c-10.8,0-19.55-8.76-19.55-19.55
			C176.87,140.46,185.62,131.71,196.41,131.71z"/>
		<path d="M146.14,131.71c10.8,0,19.55,8.75,19.55,19.55c0,10.79-8.75,19.55-19.55,19.55s-19.55-8.76-19.55-19.55
			C126.6,140.46,135.35,131.71,146.14,131.71z"/>
	</g>
</g>
<g>
</g>
<g>
</g>
<g>
</g>
<g>
</g>
<g>
</g>
<g>
</g>
<g>
</g>
<g>
</g>
<g>
</g>
<g>
</g>
<g>
</g>
<g>
</g>
<g>
</g>
<g>
</g>
<g>
</g>
</svg>
