<svg id="Layer_1" data-name="Layer 1" xmlns="http://www.w3.org/2000/svg" viewBox="0 0 400 400"><defs><style>.cls-1{fill:#fff;}</style></defs><title>logo_white</title><path class="cls-1" d="M0,279c2.68-.07,4.6-.69,5.75-1.84a6.56,6.56,0,0,0,2-4.08q.23-2.35.23-8.22V215.14q0-4.83.34-8.28L0,207.32v-5.06H25.87v3.8c-2.68.07-4.6.69-5.75,1.83A6.52,6.52,0,0,0,18.17,212q-.23,2.36-.23,8.22v19.09H59.11V215.14q0-4.83.34-8.28l-8.28.46v-5.06H77.05v3.8c-2.69.07-4.6.69-5.75,1.83a6.58,6.58,0,0,0-2,4.09q-.23,2.36-.23,8.22v48.87a87.25,87.25,0,0,1-.34,9.09l8.28-.46v5.06H51.17V279c2.68-.07,4.6-.69,5.75-1.84a6.56,6.56,0,0,0,2-4.08q.23-2.35.23-8.22V243.89l-41.17.46v24.72a86.62,86.62,0,0,1-.35,9.09l8.28-.46v5.06H0Z"/><path class="cls-1" d="M100.56,281a16.73,16.73,0,0,1-7.09-9.26q-2.13-6.24-2.13-16.46V239q0-5.16.32-9.34l-5.79.24v-3.46h18v2.66c-2.37,0-3.87.61-4.51,1.85a9.67,9.67,0,0,0-1,4.51v20.28a51.59,51.59,0,0,0,1.25,12.11,15.94,15.94,0,0,0,4.91,8.37q3.66,3.27,10.51,3.27,8.37,0,12.43-5.76c2.71-3.83,4.12-9.06,4.23-15.65l.24-22.62q0-3.39.24-5.8l-5.71.32v-3.54h15v2.66a6,6,0,0,0-4.11,1.28,4.62,4.62,0,0,0-1.37,2.86c-.1,1.1-.16,3-.16,5.76l-.16,18.67q-.08,11.69-5.19,19T114,284.05Q105.51,284.05,100.56,281Z"/><path class="cls-1" d="M148.33,280.1a5.73,5.73,0,0,0,4-1.29,4.5,4.5,0,0,0,1.37-2.85c.11-1.11.16-3,.16-5.76V235.43a56.43,56.43,0,0,1,.25-5.8l-5.8.32v-3.54h18.11v2.66a5.78,5.78,0,0,0-4,1.28,4.52,4.52,0,0,0-1.37,2.86c-.11,1.1-.16,3-.16,5.76V273.5a60.18,60.18,0,0,1-.24,6.28l15-.24q5.15-.07,7.73-3.26T186,266.1h2.74l-.48,16.66H148.33Z"/><path class="cls-1" d="M202.42,280.1q3.47-.17,4.47-1.93a11.49,11.49,0,0,0,1-5.48V270.2l.08-40.81-8.29.08q-5,0-7.13,3.34t-2.13,10.59h-3l.48-17h46.93l.49,17h-3.06a30.19,30.19,0,0,0-1-8.09,8,8,0,0,0-3.14-4.51,11.21,11.21,0,0,0-6.32-1.49H215l-.08,43.87a61.29,61.29,0,0,1-.24,6.36l6.68-.32v3.54H202.42Z"/><path class="cls-1" d="M250.72,237.12h-.08l.24,34.45q0,5.39-.16,8l5.8-.32v3.54H241.79V280.1c2.14,0,3.56-.61,4.26-1.85a9,9,0,0,0,1-4.51l.08-44.11-5.39.32v-3.54h9.57l34.29,45.88h.09l.08-36.86q0-3.39.24-5.8l-5.8.32v-3.54h14.82v2.66a6.55,6.55,0,0,0-3.59.92,3.77,3.77,0,0,0-1.49,2.3,18.78,18.78,0,0,0-.32,3.86V239l-.16,45.08h-3.87Z"/><path class="cls-1" d="M303,280.1a5.75,5.75,0,0,0,4-1.29,4.55,4.55,0,0,0,1.37-2.85c.11-1.11.16-3,.16-5.76V235.43q0-3.39.24-5.8L303,230v-3.54h38.71l.4,14.09h-2.65q0-6.6-2.86-9c-1.9-1.61-4.58-2.36-8-2.25l-6.92.16a7.2,7.2,0,0,0-4.19,1.08,4.44,4.44,0,0,0-1.61,2.82,36.48,36.48,0,0,0-.32,5.68v12.88l15.13.08-.56-6.92h3.54v16.9H331a11.12,11.12,0,0,0-.72-4.55,3.75,3.75,0,0,0-2.21-2.09,12.9,12.9,0,0,0-4.15-.53l-2.49.09-5.88.23V273.5a60.18,60.18,0,0,1-.24,6.28l15.37-.24c3.76-.05,6.63-1,8.62-2.86s3-5.06,3-9.62H345l-.48,15.7H303Zm30.66-65.68q2.58-1.62,2.58-3.55a2.71,2.71,0,0,0-.49-1.69,2.87,2.87,0,0,0-.84-.68,2.69,2.69,0,0,0-1.41-.36,5,5,0,0,0-3.14,1.45l-10.14,9.65,1.77,2.34Z"/><path class="cls-1" d="M353,280.1a5.78,5.78,0,0,0,4-1.29,4.59,4.59,0,0,0,1.36-2.85c.11-1.11.16-3,.16-5.76V235.43c0-2.26.09-4.19.24-5.8L353,230v-3.54q8.37-.16,12.64-.16c2.58,0,4.51,0,5.8.08q11.34.16,16.62,3.82a12.12,12.12,0,0,1,5.27,10.59,15.68,15.68,0,0,1-3.3,10q-3.37,4.42-11.75,6.12a13.65,13.65,0,0,1,2.49,2.49q1.13,1.46,3.06,4.51l5.48,8.61a50,50,0,0,0,2.93,4.31,9.5,9.5,0,0,0,2.82,2.42,8.26,8.26,0,0,0,4.06.92v2.66H389a24.16,24.16,0,0,1-3.66-3.83c-1-1.31-2.16-3-3.5-5.11l-5.4-8.61-1-1.69c-.86-1.45-1.61-2.63-2.26-3.54a15.49,15.49,0,0,0-2.09-2.42,20.68,20.68,0,0,1-2.25.08c-1.45,0-2.53,0-3.22-.08v15.62a61.29,61.29,0,0,1-.24,6.36l5.79-.32v3.54H353Zm32.52-38.48q0-6.1-3.54-9.17t-10.87-3.06a5.75,5.75,0,0,0-4,1.13,4.14,4.14,0,0,0-1.37,2.73c-.11,1.08-.16,3-.16,5.72v15.45c1.61.11,2.79.17,3.54.17Q385.55,254.59,385.55,241.62Z"/><path class="cls-1" d="M18,361c1.92-.09,3.16-.63,3.72-1.61a9.59,9.59,0,0,0,.84-4.57v-2.07l.06-34-6.91.07q-4.15,0-5.93,2.79C8.58,323.49,8,326.42,8,330.45H5.51l.4-14.16H45l.4,14.16H42.87a24.63,24.63,0,0,0-.84-6.74A6.68,6.68,0,0,0,39.42,320a9.4,9.4,0,0,0-5.27-1.24h-5.7l-.07,36.56a49.24,49.24,0,0,1-.2,5.3l5.57-.27v2.95H18Z"/><path class="cls-1" d="M49.55,361.7a3.36,3.36,0,0,0,2.34-.75,2.66,2.66,0,0,0,.8-1.67c.06-.64.1-1.76.1-3.35V335.64a32.91,32.91,0,0,1,.14-3.38l-3.38.19v-2.07H72.13l.24,8.22H70.82q0-3.86-1.67-5.26A6.64,6.64,0,0,0,64.48,332l-4,.09a4.18,4.18,0,0,0-2.44.63,2.55,2.55,0,0,0-.94,1.65,20.23,20.23,0,0,0-.19,3.31v7.51l8.83,0-.33-4h2.07v9.86H65.89a6.37,6.37,0,0,0-.43-2.65,2.18,2.18,0,0,0-1.29-1.22,7.33,7.33,0,0,0-2.41-.31l-1.46,0-3.43.14v10.75a35.87,35.87,0,0,1-.14,3.66l9-.14a7.3,7.3,0,0,0,5-1.66q1.74-1.62,1.74-5.61h1.6l-.28,9.15H49.55Z"/><path class="cls-1" d="M86.05,361.8a15.59,15.59,0,0,1-5.68-6,17.57,17.57,0,0,1-2-8.45,20.57,20.57,0,0,1,1.85-8.64,15.81,15.81,0,0,1,5.55-6.55,15.42,15.42,0,0,1,8.89-2.51,16.88,16.88,0,0,1,9.49,2.86l-.24-2.53h2.54v10.89h-1.69a10.58,10.58,0,0,0-3.08-6.83A9.33,9.33,0,0,0,95,331.55a10.61,10.61,0,0,0-6.08,1.86,12.63,12.63,0,0,0-4.34,5.28,18.54,18.54,0,0,0-1.6,7.94,17.18,17.18,0,0,0,1.69,7.72,13.36,13.36,0,0,0,4.56,5.31,11.19,11.19,0,0,0,6.34,1.9,13.72,13.72,0,0,0,6-1.41,12.64,12.64,0,0,0,4.79-4l1.22,1a15.17,15.17,0,0,1-6.24,5.34,17.74,17.74,0,0,1-7,1.52A15.61,15.61,0,0,1,86.05,361.8Z"/><path class="cls-1" d="M111.57,361.7a3.37,3.37,0,0,0,2.35-.75,2.66,2.66,0,0,0,.8-1.67c.06-.64.09-1.76.09-3.35V335.64c0-1.31,0-2.44.14-3.38l-3.38.19v-2.07h10.57v1.55a3.37,3.37,0,0,0-2.35.75,2.66,2.66,0,0,0-.8,1.67q-.09,1-.09,3.36v7.79h16.81v-9.86a32.91,32.91,0,0,1,.14-3.38l-3.38.19v-2.07H143v1.55a3.35,3.35,0,0,0-2.34.75,2.66,2.66,0,0,0-.8,1.67c-.07.64-.1,1.76-.1,3.36v20a33.82,33.82,0,0,1-.14,3.71l3.38-.19v2.07H132.47V361.7a3.39,3.39,0,0,0,2.35-.75,2.65,2.65,0,0,0,.79-1.67c.07-.64.1-1.76.1-3.35v-8.55l-16.81.19v10.09a36.59,36.59,0,0,1-.14,3.71l3.38-.19v2.07H111.57Z"/><path class="cls-1" d="M153.51,336.63h0l.14,20.09q0,3.15-.09,4.65l3.38-.19v2.07h-8.6V361.7a2.61,2.61,0,0,0,2.49-1.08,5.25,5.25,0,0,0,.61-2.63l.05-25.73-3.15.19v-2.07h5.59l20,26.76h.05l0-21.5a32.91,32.91,0,0,1,.14-3.38l-3.38.19v-2.07h8.64v1.55a3.77,3.77,0,0,0-2.09.54,2.15,2.15,0,0,0-.87,1.34,10.4,10.4,0,0,0-.19,2.25v1.65L176.14,364h-2.26Z"/><path class="cls-1" d="M190.65,361.51a15,15,0,0,1-5.54-6.41,19.73,19.73,0,0,1-1.79-8.28,18.86,18.86,0,0,1,1.86-8.13,16.15,16.15,0,0,1,5.54-6.5,15.25,15.25,0,0,1,8.94-2.56,15.94,15.94,0,0,1,9.18,2.56,16.14,16.14,0,0,1,5.66,6.5,18.74,18.74,0,0,1,1.88,8.13,19.06,19.06,0,0,1-1.85,8.1,16.17,16.17,0,0,1-5.55,6.52A15.27,15.27,0,0,1,200,364,16.62,16.62,0,0,1,190.65,361.51ZM206.4,360a13.12,13.12,0,0,0,3.95-5.38,18.35,18.35,0,0,0,1.34-6.9,21.13,21.13,0,0,0-1.46-7.73,15,15,0,0,0-4.23-6.1,9.65,9.65,0,0,0-6.48-2.37,9.76,9.76,0,0,0-6.29,2.09,12.92,12.92,0,0,0-4,5.42,18.52,18.52,0,0,0-1.34,7,21.52,21.52,0,0,0,1.37,7.44,14.89,14.89,0,0,0,4.13,6.2,10.4,10.4,0,0,0,13,.38Z"/><path class="cls-1" d="M220.6,361.7A3.37,3.37,0,0,0,223,361a2.66,2.66,0,0,0,.8-1.67c.07-.64.09-1.76.09-3.35V335.64a32.61,32.61,0,0,1,.15-3.38l-3.39.19v-2.07h10.57v1.55a3.37,3.37,0,0,0-2.35.75,2.71,2.71,0,0,0-.8,1.67q-.09,1-.09,3.36v20.14a35.87,35.87,0,0,1-.14,3.66l8.78-.14a5.57,5.57,0,0,0,4.51-1.9q1.5-1.86,1.5-5.94h1.6l-.29,9.72H220.6Z"/><path class="cls-1" d="M253.71,361.51a15,15,0,0,1-5.54-6.41,19.73,19.73,0,0,1-1.79-8.28,18.86,18.86,0,0,1,1.86-8.13,16.15,16.15,0,0,1,5.54-6.5,15.27,15.27,0,0,1,8.94-2.56,15.81,15.81,0,0,1,14.84,9.06,18.74,18.74,0,0,1,1.88,8.13,19.06,19.06,0,0,1-1.85,8.1,16.23,16.23,0,0,1-5.54,6.52A15.28,15.28,0,0,1,263.1,364,16.62,16.62,0,0,1,253.71,361.51ZM269.46,360a13.12,13.12,0,0,0,4-5.38,18.16,18.16,0,0,0,1.34-6.9,21.13,21.13,0,0,0-1.46-7.73,15,15,0,0,0-4.23-6.1,9.63,9.63,0,0,0-6.48-2.37,9.78,9.78,0,0,0-6.29,2.09,13,13,0,0,0-4,5.42,18.52,18.52,0,0,0-1.34,7,21.52,21.52,0,0,0,1.37,7.44,15,15,0,0,0,4.13,6.2,10.4,10.4,0,0,0,13,.38Z"/><path class="cls-1" d="M291.37,362a14.1,14.1,0,0,1-5.64-5.71,18.16,18.16,0,0,1-2-8.78,20.74,20.74,0,0,1,1.85-8.69,15.93,15.93,0,0,1,5.56-6.64,15.3,15.3,0,0,1,8.93-2.56,20.52,20.52,0,0,1,5.14.68,16.92,16.92,0,0,1,4.57,1.9l-.18-2.25h2.58v10.75h-1.69a9.51,9.51,0,0,0-3.13-6.76,10.18,10.18,0,0,0-7-2.44,10.38,10.38,0,0,0-6.08,1.92,13.37,13.37,0,0,0-4.36,5.33,17.52,17.52,0,0,0-1.63,7.68,18.78,18.78,0,0,0,1.6,7.89,13.18,13.18,0,0,0,4.46,5.45,11.28,11.28,0,0,0,6.53,2,15.82,15.82,0,0,0,4.16-.59,13.11,13.11,0,0,0,3.87-1.76V349.12l-3.29.19v-2.07h10.61v1.55c-1.5,0-2.44.57-2.81,1.71a12.27,12.27,0,0,0-.57,3.88v7.18h-1.26a14.72,14.72,0,0,0-5.08,1.22,16.32,16.32,0,0,1-3.33.89,21.07,21.07,0,0,1-3.52.33A16.91,16.91,0,0,1,291.37,362Z"/><path class="cls-1" d="M319.82,361.7a3.37,3.37,0,0,0,2.35-.75,2.66,2.66,0,0,0,.8-1.67c.06-.64.09-1.76.09-3.35V335.64c0-1.31.05-2.44.14-3.38l-3.38.19v-2.07h10.57v1.55a3.37,3.37,0,0,0-2.35.75,2.66,2.66,0,0,0-.8,1.67q-.09,1-.09,3.36v20a36.59,36.59,0,0,1-.14,3.71l3.38-.19v2.07H319.82Z"/><path class="cls-1" d="M335.55,361.7a3.37,3.37,0,0,0,2.35-.75,2.66,2.66,0,0,0,.8-1.67c.06-.64.09-1.76.09-3.35V335.64c0-1.31,0-2.44.14-3.38l-3.38.19v-2.07h22.59l.23,8.22h-1.55q0-3.86-1.66-5.26a6.69,6.69,0,0,0-4.68-1.31l-4,.09a4.22,4.22,0,0,0-2.45.63,2.59,2.59,0,0,0-.94,1.65,21.75,21.75,0,0,0-.18,3.31v7.51l8.82,0-.33-4h2.07v9.86h-1.55a6.56,6.56,0,0,0-.42-2.65,2.18,2.18,0,0,0-1.29-1.22,7.4,7.4,0,0,0-2.42-.31l-1.46,0-3.42.14v10.75a32.6,32.6,0,0,1-.15,3.66l9-.14a7.31,7.31,0,0,0,5-1.66c1.16-1.08,1.73-2.95,1.73-5.61h1.6l-.28,9.15H335.55Z"/><path class="cls-1" d="M371.31,363.39a12.8,12.8,0,0,1-3.92-1.78l.23,2h-2.44l-.28-10h1.83a8.44,8.44,0,0,0,2.77,6.22,9.48,9.48,0,0,0,6.43,2.19,7.43,7.43,0,0,0,4.82-1.57,5.25,5.25,0,0,0,1.94-4.3,5.44,5.44,0,0,0-1.1-3.45,9.83,9.83,0,0,0-2.72-2.4c-1.08-.64-2.55-1.38-4.39-2.23-2.1-1-3.77-1.88-5-2.62a10.61,10.61,0,0,1-3.17-3,7.68,7.68,0,0,1-1.32-4.58,8.84,8.84,0,0,1,.87-3.75,7.52,7.52,0,0,1,3-3.2,10.75,10.75,0,0,1,5.66-1.31,17.24,17.24,0,0,1,4.24.54,11.07,11.07,0,0,1,3.92,1.86l-.18-2h2.39v10.33h-1.69a10.43,10.43,0,0,0-2.37-6.27,7.35,7.35,0,0,0-6-2.56,6,6,0,0,0-4.41,1.57,5.31,5.31,0,0,0-1.6,3.92,5,5,0,0,0,1.08,3.24,9.25,9.25,0,0,0,2.63,2.26c1,.59,2.49,1.33,4.37,2.2a52.62,52.62,0,0,1,5.14,2.63,11.16,11.16,0,0,1,3.31,3.08,7.79,7.79,0,0,1,1.36,4.67,8.15,8.15,0,0,1-5.07,7.79,14.12,14.12,0,0,1-5.92,1.13A16.54,16.54,0,0,1,371.31,363.39Z"/><path class="cls-1" d="M196.41,31.17a19.55,19.55,0,1,1-19.54,19.55A19.55,19.55,0,0,1,196.41,31.17Z"/><circle class="cls-1" cx="246.68" cy="100.99" r="19.55"/><path class="cls-1" d="M246.68,131.71a19.55,19.55,0,1,1-19.54,19.55A19.55,19.55,0,0,1,246.68,131.71Z"/><path class="cls-1" d="M196.41,131.71a19.55,19.55,0,1,1-19.54,19.55A19.55,19.55,0,0,1,196.41,131.71Z"/><path class="cls-1" d="M146.14,131.71a19.55,19.55,0,1,1-19.54,19.55A19.55,19.55,0,0,1,146.14,131.71Z"/></svg>